<svg width="24" height="24" viewBox="0 0 24 24" fill="none" xmlns="http://www.w3.org/2000/svg">
<path fill-rule="evenodd" clip-rule="evenodd" d="M24 12C24 18.6274 18.6274 24 12 24C5.37258 24 0 18.6274 0 12C0 5.37258 5.37258 0 12 0C18.6274 0 24 5.37258 24 12ZM5.69561 7.61699C5.84227 7.75228 5.91717 7.95096 5.89729 8.15197V15.3895C5.94081 15.6506 5.86039 15.9173 5.68067 16.1079L4 18.1943V18.4694H8.76564V18.1943L7.08497 16.1079C6.90393 15.9176 6.81853 15.6526 6.85341 15.3895V9.13022L11.0364 18.4694H11.5219L15.1148 9.13022V16.5741C15.1148 16.7728 15.1148 16.811 14.9879 16.9409L13.6956 18.2249V18.5H19.9701V18.2249L18.7227 16.9715C18.6126 16.8856 18.5579 16.7444 18.5808 16.6046V7.39536C18.5579 7.25561 18.6126 7.11442 18.7227 7.02851L20 5.77513V5.5H15.578L12.4258 13.5476L8.84034 5.5H4.20168V5.77513L5.69561 7.61699Z" fill="white"/>
</svg>
