<svg width="151" height="151" viewBox="0 0 151 151" fill="none" xmlns="http://www.w3.org/2000/svg">
<path d="M129.909 16.8252L82.7515 51.85L91.4721 31.1858L129.909 16.8252Z" fill="#E2761B" stroke="#E2761B" stroke-linecap="round" stroke-linejoin="round"/>
<path d="M21.0435 16.8252L67.8222 52.1818L59.5281 31.1858L21.0435 16.8252Z" fill="#E4761B" stroke="#E4761B" stroke-linecap="round" stroke-linejoin="round"/>
<path d="M112.942 98.0127L100.382 117.255L127.255 124.649L134.981 98.4392L112.942 98.0127Z" fill="#E4761B" stroke="#E4761B" stroke-linecap="round" stroke-linejoin="round"/>
<path d="M16.0669 98.4392L23.7449 124.649L50.6177 117.255L38.0581 98.0127L16.0669 98.4392Z" fill="#E4761B" stroke="#E4761B" stroke-linecap="round" stroke-linejoin="round"/>
<path d="M49.1012 65.4995L41.6128 76.8269L68.2961 78.0118L67.3482 49.3379L49.1012 65.4995Z" fill="#E4761B" stroke="#E4761B" stroke-linecap="round" stroke-linejoin="round"/>
<path d="M101.852 65.4998L83.3676 49.0063L82.7515 78.012L109.387 76.8271L101.852 65.4998Z" fill="#E4761B" stroke="#E4761B" stroke-linecap="round" stroke-linejoin="round"/>
<path d="M50.6177 117.255L66.6371 109.435L52.7978 98.6289L50.6177 117.255Z" fill="#E4761B" stroke="#E4761B" stroke-linecap="round" stroke-linejoin="round"/>
<path d="M84.3154 109.435L100.382 117.255L98.1547 98.6289L84.3154 109.435Z" fill="#E4761B" stroke="#E4761B" stroke-linecap="round" stroke-linejoin="round"/>
<path d="M100.382 117.255L84.3154 109.435L85.5951 119.909L85.4529 124.317L100.382 117.255Z" fill="#D7C1B3" stroke="#D7C1B3" stroke-linecap="round" stroke-linejoin="round"/>
<path d="M50.6177 117.255L65.5471 124.317L65.4523 119.909L66.6371 109.435L50.6177 117.255Z" fill="#D7C1B3" stroke="#D7C1B3" stroke-linecap="round" stroke-linejoin="round"/>
<path d="M65.784 91.7091L52.4187 87.7753L61.8503 83.4624L65.784 91.7091Z" fill="#233447" stroke="#233447" stroke-linecap="round" stroke-linejoin="round"/>
<path d="M85.1685 91.7091L89.1022 83.4624L98.5812 87.7753L85.1685 91.7091Z" fill="#233447" stroke="#233447" stroke-linecap="round" stroke-linejoin="round"/>
<path d="M50.6177 117.255L52.8927 98.0127L38.0581 98.4392L50.6177 117.255Z" fill="#CD6116" stroke="#CD6116" stroke-linecap="round" stroke-linejoin="round"/>
<path d="M98.1074 98.0127L100.382 117.255L112.942 98.4392L98.1074 98.0127Z" fill="#CD6116" stroke="#CD6116" stroke-linecap="round" stroke-linejoin="round"/>
<path d="M109.387 76.8271L82.7515 78.012L85.216 91.7091L89.1498 83.4624L98.6287 87.7754L109.387 76.8271Z" fill="#CD6116" stroke="#CD6116" stroke-linecap="round" stroke-linejoin="round"/>
<path d="M52.4188 87.7754L61.8978 83.4624L65.7842 91.7091L68.2961 78.012L41.6128 76.8271L52.4188 87.7754Z" fill="#CD6116" stroke="#CD6116" stroke-linecap="round" stroke-linejoin="round"/>
<path d="M41.6125 76.8271L52.7977 98.6288L52.4186 87.7754L41.6125 76.8271Z" fill="#E4751F" stroke="#E4751F" stroke-linecap="round" stroke-linejoin="round"/>
<path d="M98.6285 87.7754L98.1545 98.6288L109.387 76.8271L98.6285 87.7754Z" fill="#E4751F" stroke="#E4751F" stroke-linecap="round" stroke-linejoin="round"/>
<path d="M68.2959 78.0122L65.7839 91.7093L68.912 107.871L69.6229 86.5907L68.2959 78.0122Z" fill="#E4751F" stroke="#E4751F" stroke-linecap="round" stroke-linejoin="round"/>
<path d="M82.7511 78.0122L81.4714 86.5433L82.0402 107.871L85.2156 91.7093L82.7511 78.0122Z" fill="#E4751F" stroke="#E4751F" stroke-linecap="round" stroke-linejoin="round"/>
<path d="M85.216 91.7092L82.0405 107.871L84.3155 109.435L98.1548 98.6288L98.6287 87.7754L85.216 91.7092Z" fill="#F6851B" stroke="#F6851B" stroke-linecap="round" stroke-linejoin="round"/>
<path d="M52.4187 87.7754L52.7979 98.6288L66.6372 109.435L68.9121 107.871L65.7841 91.7092L52.4187 87.7754Z" fill="#F6851B" stroke="#F6851B" stroke-linecap="round" stroke-linejoin="round"/>
<path d="M85.4529 124.317L85.5951 119.909L84.4102 118.866H66.5423L65.4523 119.909L65.5471 124.317L50.6177 117.255L55.8311 121.52L66.4002 128.867H84.5524L95.1688 121.52L100.382 117.255L85.4529 124.317Z" fill="#C0AD9E" stroke="#C0AD9E" stroke-linecap="round" stroke-linejoin="round"/>
<path d="M84.3153 109.435L82.0403 107.871H68.912L66.637 109.435L65.4521 119.909L66.5422 118.866H84.4101L85.5949 119.909L84.3153 109.435Z" fill="#161616" stroke="#161616" stroke-linecap="round" stroke-linejoin="round"/>
<path d="M131.9 54.1249L135.928 34.7878L129.909 16.8252L84.3154 50.6651L101.852 65.4997L126.639 72.7511L132.137 66.3528L129.767 64.6466L133.559 61.1868L130.62 58.9118L134.412 56.0207L131.9 54.1249Z" fill="#763D16" stroke="#763D16" stroke-linecap="round" stroke-linejoin="round"/>
<path d="M15.0715 34.7878L19.1001 54.1249L16.5408 56.0207L20.3324 58.9118L17.4413 61.1868L21.2329 64.6466L18.8631 66.3528L24.3135 72.7511L49.101 65.4997L66.6371 50.6651L21.0433 16.8252L15.0715 34.7878Z" fill="#763D16" stroke="#763D16" stroke-linecap="round" stroke-linejoin="round"/>
<path d="M126.639 72.7509L101.852 65.4995L109.387 76.8269L98.1548 98.6285L112.942 98.4389H134.981L126.639 72.7509Z" fill="#F6851B" stroke="#F6851B" stroke-linecap="round" stroke-linejoin="round"/>
<path d="M49.1011 65.4995L24.3136 72.7509L16.0669 98.4389H38.0581L52.7979 98.6285L41.6127 76.8269L49.1011 65.4995Z" fill="#F6851B" stroke="#F6851B" stroke-linecap="round" stroke-linejoin="round"/>
<path d="M82.7513 78.0121L84.3153 50.6653L91.5194 31.186H59.5278L66.6371 50.6653L68.2959 78.0121L68.8646 86.638L68.912 107.871H82.0404L82.1352 86.638L82.7513 78.0121Z" fill="#F6851B" stroke="#F6851B" stroke-linecap="round" stroke-linejoin="round"/>
</svg>
